<svg xmlns="http://www.w3.org/2000/svg" width="158.769" height="165.396" viewBox="0 0 158.769 165.396">
  <g id="report_pic" data-name="report pic" transform="translate(-163.201 -83.818)">
    <path id="Path_862" data-name="Path 862" d="M171.89,294.946c-4.508,17.2,13.962,53.653,48.394,68.514s68.605,8.292,76.316-14.667c3.142-9.394-6.207-20.043-4.139-30.424,1.507-9.829,28.813-28.3,19.324-49.931s-58.37-27.688-76.356-14.412-24.163,16.716-28.566,18.5c-6.388,2.865-30.477,5.236-34.974,22.418Z" transform="translate(-7.295 -148.477)" fill="#d5f0ff" opacity="0.5"/>
    <g id="Group_3293" data-name="Group 3293" transform="translate(243.622 83.818)">
      <g id="XMLID_60_" transform="translate(3.184 0)">
        <path id="XMLID_61_" d="M1097.992,118.048c-2.687-1.847-7.074-6.569-8.025-11.407-.605-3.136-1.037-6.379.686-9.152,3.633-4.842,8.683,8.248,12.278,6.992.91-1.14-10.358-10.006-6.857-12.016,2.211-1.919,5.92-4.171,8.794-3.3,3.373,1.377,2.577,11.571,4.576,10.9,1.6-.535-1.067-8.222-.146-11.153.625-1.985,5.262-3.481,6.839-1.73.892.708-2.008,7.205-.479,8.262,2.036.318-.707-8.87,4.989-11,2.645-.921,3.983-.708,6.866-.08,1.628,1.8.079,3.081.538,7.264-.967,1.781-7.49.644-5.913,3.383.783,1.051,3.372-.67,5.913-3.383.317,2.892,1.312,7.532-1.387,8.6-2.763.778-8.66.319-8.288,2.313.88,1.9,9.031-2.1,10.467-1.393,1.858,3.155-.677,8.609-3.283,10.418-2.078,1.07-6.033-4.288-7.151-2.154-.89,4.669,4.425,2.567,6.635,3.848,1.506,3.99-5.447,6.407-7.462,7.1-6.566,2.3-15.9.393-19.589-2.3Zm7.491-22.554a.965.965,0,0,0-1.326.34.923.923,0,1,0,1.53,1.015.966.966,0,0,0-.2-1.355Zm7.6,9.38c1.891-.426,3.782-.512,4.37.687-.559,1.046-2.1,1.08-3.141.919-.852.045-2.727-1.221-1.229-1.605Zm-3.045,5.744c-.514,1.537,4.848,2.887,5.209,1.8.014-1.248-3.944-3.672-5.209-1.8Zm-10.244-3.422c.862.634,1.576,1.4,1.284,2.076-.634.142-1.2-.5-1.515-.989-.318-.339-.461-1.578.23-1.088Zm14.189-13.214c-.6-.307-1,.59-.808,1.288.142.644.277,1.7.979,1.55a3,3,0,0,0-.171-2.837Z" transform="translate(-1089.434 -83.818)" fill="#dfcffd" fill-rule="evenodd"/>
      </g>
      <g id="XMLID_46_" transform="translate(0 4.246)">
        <g id="XMLID_57_">
          <g id="XMLID_58_">
            <path id="XMLID_59_" d="M1054.3,170.253a.486.486,0,0,0,.635.053,154.3,154.3,0,0,0,19.182-16.623,149.559,149.559,0,0,0,17.745-22.07.486.486,0,0,0-.811-.535,147.834,147.834,0,0,1-36.69,38.444.486.486,0,0,0-.1.679A.511.511,0,0,0,1054.3,170.253Z" transform="translate(-1054.158 -130.86)" fill="#4b76ba"/>
          </g>
        </g>
        <g id="XMLID_54_" transform="translate(28.961 8.283)">
          <g id="XMLID_55_">
            <path id="XMLID_56_" d="M1375.151,226a.486.486,0,0,0,.242.135,11.29,11.29,0,0,0,5.6-.085,11.69,11.69,0,0,0,4.584-2.578.486.486,0,0,0-.645-.727,10.058,10.058,0,0,1-9.324,2.442.486.486,0,0,0-.455.812Z" transform="translate(-1375.013 -222.62)" fill="#4b76ba"/>
          </g>
        </g>
        <g id="XMLID_49_" transform="translate(14.907 5.012)">
          <g id="XMLID_52_" transform="translate(2.602 18.613)">
            <path id="XMLID_53_" d="M1248.273,393.416l.021.02c4.938,4.528,11.07,5.681,17.731,3.335a.486.486,0,1,0-.323-.916c-6.3,2.22-12.094,1.136-16.752-3.134a.486.486,0,0,0-.677.7Z" transform="translate(-1248.137 -392.593)" fill="#4b76ba"/>
          </g>
          <g id="XMLID_50_">
            <path id="XMLID_51_" d="M1223.766,197.119a26.456,26.456,0,0,0,3.725,3.123.486.486,0,0,0,.562-.793c-5.142-3.642-7.394-7.3-7.771-12.616a.486.486,0,1,0-.969.069,15.83,15.83,0,0,0,2.49,7.788A16.513,16.513,0,0,0,1223.766,197.119Z" transform="translate(-1219.311 -186.382)" fill="#4b76ba"/>
          </g>
        </g>
        <g id="XMLID_47_" transform="translate(6.077 12.099)">
          <path id="XMLID_48_" d="M1126.243,277.825a16.009,16.009,0,0,0,3.582,2.724.486.486,0,0,0,.485-.842c-3.275-1.885-7.127-5.222-7.853-14.361a.486.486,0,1,0-.968.077C1121.992,271.778,1123.96,275.473,1126.243,277.825Z" transform="translate(-1121.487 -264.899)" fill="#4b76ba"/>
        </g>
      </g>
    </g>
    <g id="Group_3294" data-name="Group 3294" transform="translate(163.201 86.126)">
      <g id="XMLID_11844_" transform="translate(0 0)">
        <g id="XMLID_11845_">
          <path id="XMLID_11846_" d="M200.687,156.081c-5.009,2.853-16.989,3.9-24.891.079-2.427-1.154-10.8-5.182-8.338-9.969,2.954-1.289,9.316,2.109,8.87-3.873-1.1-2.836-6.823,3.315-9.275,1.675-3.008-2.642-5.4-9.843-2.623-13.532,1.9-.679,11.548,5.508,12.924,3.248.753-2.447-6.707-2.717-10.06-4.089-3.231-1.724-1.318-7.4-.506-10.979,2.8,3.766,5.8,6.294,6.929,5.089,2.37-3.207-5.973-2.717-6.929-5.089,1.176-5.179-.583-7,1.717-9.031,3.7-.374,5.413-.449,8.6,1.085,6.836,3.491,2.078,14.617,4.677,14.511,2.069-1.105-.636-9.668.584-10.427,2.228-1.97,7.827.571,8.326,3.149.734,3.806-3.712,13.063-1.782,13.963,2.41,1.133,2.875-11.762,7.3-13,3.728-.683,8.056,2.673,10.552,5.4,4.1,3.022-11.3,12.522-10.32,14.082,4.327,2.091,12.536-13.6,16.4-7.005,1.762,3.723.756,7.727-.453,11.572-1.886,5.929-8.064,11.221-11.7,13.151Zm-6.157-29.353a1.294,1.294,0,0,0,1.169,2.294,1.232,1.232,0,0,0,.444-1.677,1.218,1.218,0,0,0-1.614-.617ZM183.655,137.4c1.824.7-.71,2.015-1.771,1.837-1.329.053-3.256-.21-3.806-1.6.908-1.419,3.267-1.04,5.577-.234Zm3,7.638c-1.318-2.534-6.627-.062-6.789,1.5.3,1.419,7.212.5,6.789-1.5Zm13.333-2.821c.938-.516.581,1.017.133,1.4-.46.57-1.267,1.291-2.041,1.022-.269-.887.736-1.747,1.908-2.419Zm-15.895-18.6c-.906.791-.884,2.434-.622,3.533.859.284,1.18-1.015,1.45-1.8.342-.847-.037-2.029-.828-1.73Z" transform="translate(-163.201 -109.383)" fill="#16b79e" fill-rule="evenodd"/>
        </g>
      </g>
      <g id="XMLID_11830_" transform="translate(5.488 5.436)">
        <g id="XMLID_11841_" transform="translate(3.578)">
          <g id="XMLID_11842_">
            <path id="XMLID_11843_" d="M305.254,224.331a.613.613,0,0,1-.8-.025,194.722,194.722,0,0,1-21.666-23.593A188.745,188.745,0,0,1,263.7,170.5a.613.613,0,0,1,1.094-.554,186.56,186.56,0,0,0,40.488,53.463.613.613,0,0,1,.034.866A.622.622,0,0,1,305.254,224.331Z" transform="translate(-263.634 -169.607)" fill="#4b76ba"/>
          </g>
        </g>
        <g id="XMLID_11838_" transform="translate(0 10.111)">
          <g id="XMLID_11839_">
            <path id="XMLID_11840_" d="M236.86,287.311a.611.611,0,0,1-.322.135,14.246,14.246,0,0,1-7.007-.91,14.755,14.755,0,0,1-5.378-3.89.613.613,0,1,1,.913-.818,12.694,12.694,0,0,0,11.34,4.4.613.613,0,0,1,.454,1.084Z" transform="translate(-223.996 -281.625)" fill="#4b76ba"/>
          </g>
        </g>
        <g id="XMLID_11833_" transform="translate(2.306 9.425)">
          <g id="XMLID_11836_" transform="translate(0 22.964)">
            <path id="XMLID_11837_" d="M272.629,529.517l-.029.022c-6.841,4.969-14.694,5.535-22.709,1.638a.613.613,0,1,1,.536-1.1c7.583,3.687,15,3.159,21.453-1.527a.613.613,0,0,1,.749.97Z" transform="translate(-249.546 -528.431)" fill="#4b76ba"/>
          </g>
          <g id="XMLID_11834_" transform="translate(16.153)">
            <path id="XMLID_11835_" d="M434.523,286.916a33.376,33.376,0,0,1-5.118,3.381.613.613,0,0,1-.59-1.074c6.969-3.829,10.317-8.089,11.553-14.7a.613.613,0,0,1,1.205.225,19.977,19.977,0,0,1-4.239,9.407A20.788,20.788,0,0,1,434.523,286.916Z" transform="translate(-428.497 -274.019)" fill="#4b76ba"/>
          </g>
        </g>
        <g id="XMLID_11831_" transform="translate(28.11 19.577)">
          <path id="XMLID_11832_" d="M541.152,402.091a20.2,20.2,0,0,1-4.881,2.9.613.613,0,1,1-.487-1.125c4.376-1.894,9.685-5.525,11.906-16.88a.613.613,0,0,1,1.2.235C547.349,395.118,544.352,399.469,541.152,402.091Z" transform="translate(-535.414 -386.493)" fill="#4b76ba"/>
        </g>
      </g>
    </g>
    <g id="Group_3295" data-name="Group 3295" transform="translate(164.444 188.424)">
      <g id="XMLID_11821_" transform="translate(0 0)">
        <g id="XMLID_11822_">
          <path id="XMLID_11823_" d="M200.216,1275.414c-3.48,1.543-11.426,1.432-16.361-1.611-1.523-.923-6.754-4.119-4.817-7.11,2.03-.647,5.982,2.01,6.086-1.953-.53-1.933-4.7,1.725-6.2.489-1.8-1.944-2.9-6.834-.825-9.072,1.3-.32,7.226,4.391,8.279,3,.661-1.56-4.229-2.236-6.339-3.359-2-1.351-.372-4.956.4-7.252,1.583,2.665,3.384,4.528,4.213,3.806,1.771-1.945-3.746-2.18-4.213-3.806,1.115-3.33.08-4.637,1.726-5.823,2.461,0,3.589.07,5.586,1.289,4.255,2.755.382,9.749,2.1,9.847,1.437-.588.234-6.394,1.082-6.809,1.6-1.149,5.113.9,5.262,2.623.232,2.55-3.3,8.342-2.1,9.058,1.507.908,2.676-7.542,5.664-8.06,2.5-.2,5.116,2.292,6.575,4.249,2.5,2.259-8.255,7.478-7.718,8.567,2.705,1.667,9.144-8.1,11.239-3.51.907,2.564-.013,5.132-1.066,7.581-1.636,3.766-6.045,6.831-8.569,7.857Zm-2.089-19.7a.854.854,0,1,0,1.027.517.81.81,0,0,0-1.027-.517ZM190.274,1262c1.149.578-.607,1.269-1.29,1.086-.875-.055-2.124-.361-2.4-1.307.688-.872,2.217-.47,3.686.22Zm1.454,5.22c-.691-1.757-4.351-.481-4.562.533.1.953,4.7.811,4.562-.533Zm8.949-.966c.654-.275.317.709-.006.925-.335.351-.916.766-1.405.536-.114-.6.6-1.1,1.411-1.461Zm-9.2-13.29a2.5,2.5,0,0,0-.644,2.284c.544.238.841-.59,1.073-1.092.28-.532.107-1.333-.429-1.192Z" transform="translate(-176.969 -1242.721)" fill="#62caeb" fill-rule="evenodd"/>
        </g>
      </g>
      <g id="XMLID_11806_" transform="translate(4.072 3.616)">
        <g id="XMLID_11818_" transform="translate(3.109)">
          <g id="XMLID_11819_">
            <path id="XMLID_11820_" d="M280.075,1321.749a.5.5,0,0,1-.309-.166,128.385,128.385,0,0,1-12.674-16.963,124.9,124.9,0,0,1-10.533-21.151.506.506,0,1,1,.945-.364,123.026,123.026,0,0,0,23.021,37.807.506.506,0,0,1-.45.836Z" transform="translate(-256.526 -1282.78)" fill="#4b76ba"/>
          </g>
        </g>
        <g id="XMLID_11815_" transform="translate(0.083 6.405)">
          <g id="XMLID_11816_">
            <path id="XMLID_11817_" d="M229.445,1358.465a9.108,9.108,0,0,1-3.038-.976,9.871,9.871,0,0,1-3.31-2.943.506.506,0,1,1,.818-.6,8.3,8.3,0,0,0,7.081,3.606.506.506,0,1,1,.007,1.012A10.737,10.737,0,0,1,229.445,1358.465Z" transform="translate(-223 -1353.74)" fill="#4b76ba"/>
          </g>
        </g>
        <g id="XMLID_11812_" transform="translate(0 22.241)">
          <g id="XMLID_11813_">
            <path id="XMLID_11814_" d="M228.5,1532.448a16,16,0,0,1-6.175-2.327.506.506,0,1,1,.532-.861c4.71,2.91,9.585,3.057,14.1.427a.506.506,0,0,1,.51.875A13.708,13.708,0,0,1,228.5,1532.448Z" transform="translate(-222.082 -1529.184)" fill="#4b76ba"/>
          </g>
        </g>
        <g id="XMLID_11809_" transform="translate(11.247 7.983)">
          <g id="XMLID_11810_">
            <path id="XMLID_11811_" d="M347.12,1381.375a.506.506,0,0,1-.128-.967c4.8-2.041,7.272-4.6,8.519-8.824a.506.506,0,1,1,.971.286,13.306,13.306,0,0,1-3.442,5.939,17.793,17.793,0,0,1-5.652,3.531A.508.508,0,0,1,347.12,1381.375Z" transform="translate(-346.684 -1371.22)" fill="#4b76ba"/>
          </g>
        </g>
        <g id="XMLID_11807_" transform="translate(16.764 15.324)">
          <g id="XMLID_11808_">
            <path id="XMLID_11853_" d="M408.244,1464.121a.506.506,0,0,1-.083-.984c2.98-.945,6.683-2.962,8.886-10.232a.506.506,0,0,1,.969.293,17.936,17.936,0,0,1-4.494,8,12.42,12.42,0,0,1-5.055,2.9A.512.512,0,0,1,408.244,1464.121Z" transform="translate(-407.808 -1452.546)" fill="#4b76ba"/>
          </g>
        </g>
      </g>
    </g>
    <ellipse id="Ellipse_495" data-name="Ellipse 495" cx="73.675" cy="3.737" rx="73.675" ry="3.737" transform="translate(165.145 241.741)" fill="#dfe6ff"/>
    <g id="Group_3298" data-name="Group 3298" transform="translate(184.819 116.81)">
      <path id="Path_863" data-name="Path 863" d="M508.166,662.747H414.832c6.078-37.307-5.641-77.786,0-118.927h93.334a136.042,136.042,0,0,0-2.477,22.187q-.065,1.711-.1,3.441C504.921,600.713,510.863,636.156,508.166,662.747Z" transform="translate(-412.296 -535.291)" fill="#8dafdb" fill-rule="evenodd"/>
      <path id="XMLID_8503_" d="M438.211,508.169h89.617c-7.09,36.743,3.33,86.98,0,122.144H438.211c5.835-38.315-5.422-79.883,0-122.144Z" transform="translate(-433.62 -502.858)" fill="#dbcde4" fill-rule="evenodd"/>
      <path id="XMLID_8502_" d="M404.239,449.326h90.973c-7.19,38.339,3.386,90.762,0,127.456H404.239c5.928-39.984-5.5-83.356,0-127.456Z" transform="translate(-402.697 -449.326)" fill="#fff" fill-rule="evenodd"/>
      <path id="XMLID_8500_" d="M479.449,759.394h47.177c.307,0,.562.4.562.887h0c0,.481-.255.881-.562.881H479.449c-.311,0-.562-.4-.562-.881h0c0-.487.251-.887.562-.887Z" transform="translate(-472.01 -731.406)" fill="#8dafdb" fill-rule="evenodd"/>
      <path id="XMLID_8499_" d="M504.96,827.839h73.975a.884.884,0,0,1,.881.881h0a.884.884,0,0,1-.881.881H504.96a.88.88,0,0,1-.881-.881h0a.88.88,0,0,1,.881-.881Z" transform="translate(-494.928 -793.673)" fill="#8dafdb" fill-rule="evenodd"/>
      <path id="XMLID_8498_" d="M501.016,907.773h73.975a.884.884,0,0,1,.881.881v.006a.884.884,0,0,1-.881.881H501.016a.888.888,0,0,1-.881-.881v-.006a.888.888,0,0,1,.881-.881Z" transform="translate(-491.34 -866.392)" fill="#8dafdb" fill-rule="evenodd"/>
      <path id="XMLID_8497_" d="M479.768,976.218h73.975a.884.884,0,0,1,.881.881h0a.884.884,0,0,1-.881.881H479.768a.88.88,0,0,1-.881-.881h0a.88.88,0,0,1,.881-.881Z" transform="translate(-472.01 -928.659)" fill="#8dafdb" fill-rule="evenodd"/>
      <path id="XMLID_8496_" d="M510.22,1052.42H584.2a.884.884,0,0,1,.881.881h0a.88.88,0,0,1-.881.881H510.22a.88.88,0,0,1-.881-.881h0a.883.883,0,0,1,.881-.881Z" transform="translate(-499.713 -997.983)" fill="#8dafdb" fill-rule="evenodd"/>
      <path id="XMLID_8495_" d="M488.9,1120.79h73.975a.885.885,0,0,1,.881.887h0a.884.884,0,0,1-.881.881H488.9a.888.888,0,0,1-.881-.881h0a.889.889,0,0,1,.881-.887Z" transform="translate(-480.321 -1060.182)" fill="#8dafdb" fill-rule="evenodd"/>
      <path id="XMLID_8494_" d="M520.186,1200.8h73.975a.888.888,0,0,1,.881.881h0a.884.884,0,0,1-.881.881H520.186a.88.88,0,0,1-.881-.881h0a.883.883,0,0,1,.881-.881Z" transform="translate(-508.779 -1132.969)" fill="#8dafdb" fill-rule="evenodd"/>
      <path id="XMLID_8493_" d="M486.759,1269.17h73.975a.885.885,0,0,1,.881.887h0a.884.884,0,0,1-.881.881H486.759a.888.888,0,0,1-.881-.881h0a.889.889,0,0,1,.881-.887Z" transform="translate(-478.37 -1195.168)" fill="#8dafdb" fill-rule="evenodd"/>
      <path id="XMLID_8492_" d="M587.291,1357.69H521.574c-1.15,0-2.079.394-2.079.881h0c0,.487.929.881,2.079.881h65.717c1.15,0,2.079-.394,2.079-.881h0c0-.487-.929-.881-2.079-.881Z" transform="translate(-508.952 -1275.698)" fill="#8dafdb" fill-rule="evenodd"/>
      <path id="XMLID_8491_" d="M994.6,1426.06H961.97a.976.976,0,0,0-1.04.881h0a.976.976,0,0,0,1.04.887H994.6a.974.974,0,0,0,1.032-.887h0a.973.973,0,0,0-1.033-.881Z" transform="translate(-910.542 -1337.897)" fill="#8dafdb" fill-rule="evenodd"/>
      <path id="XMLID_8490_" d="M973.075,1496.72H1005.7a.972.972,0,0,1,1.04.881h0a.976.976,0,0,1-1.04.881H973.075a.974.974,0,0,1-1.032-.881h0a.969.969,0,0,1,1.032-.881Z" transform="translate(-920.652 -1402.179)" fill="#8dafdb" fill-rule="evenodd"/>
      <path id="XMLID_8489_" d="M957.826,1565.1h32.626a.974.974,0,0,1,1.032.881h0a.969.969,0,0,1-1.032.881H957.826a.965.965,0,0,1-1.032-.881h0a.969.969,0,0,1,1.032-.881Z" transform="translate(-906.778 -1464.386)" fill="#8dafdb" fill-rule="evenodd"/>
      <path id="XMLID_8488_" d="M972.285,1653.34H935.242c-.244,0-.444.4-.444.887h0c0,.481.2.881.444.881h37.043c.244,0,.444-.4.444-.881h0c0-.487-.2-.887-.444-.887Z" transform="translate(-886.769 -1544.661)" fill="#8dafdb" fill-rule="evenodd"/>
      <path id="XMLID_8487_" d="M983.167,1721.78H946.121c-.244,0-.441.394-.441.881h0c0,.487.2.881.441.881h37.047c.241,0,.441-.393.441-.881h0c0-.486-.2-.881-.441-.881Z" transform="translate(-896.668 -1606.924)" fill="#8dafdb" fill-rule="evenodd"/>
      <g id="Group_3296" data-name="Group 3296" transform="translate(9.879 85.96)">
        <path id="Path_864" data-name="Path 864" d="M720.785,1417.091a15.449,15.449,0,0,0-15.178-15.443V1417.4H720.78c0-.1.005-.2.005-.305Z" transform="translate(-688.144 -1401.648)" fill="#0643a3" fill-rule="evenodd"/>
        <path id="Path_865" data-name="Path 865" d="M729.259,1596.94H714.948l13.012,5.418a15.348,15.348,0,0,0,1.3-5.418Z" transform="translate(-696.642 -1579.312)" fill="#84b2fe" fill-rule="evenodd"/>
        <path id="Path_866" data-name="Path 866" d="M726.418,1621.006l-13.41-5.585,6.764,12.474a15.529,15.529,0,0,0,6.645-6.889Z" transform="translate(-694.877 -1596.126)" fill="#dfe6ff" fill-rule="evenodd"/>
        <path id="Path_867" data-name="Path 867" d="M534.356,1454.7l-7.048-13,.042-.024-.032-.013h-.005l0-.005v-16.289a15.446,15.446,0,1,0,7.04,29.328Z" transform="translate(-512.138 -1423.228)" fill="#2c7efe" fill-rule="evenodd"/>
      </g>
      <g id="Group_3297" data-name="Group 3297" transform="translate(21.05 12.509)">
        <path id="Path_868" data-name="Path 868" d="M635.9,597.552v-8.1h3.506a4.554,4.554,0,0,1,1.875.353,2.746,2.746,0,0,1,1.215,1.012,2.829,2.829,0,0,1,.428,1.574,2.779,2.779,0,0,1-.428,1.557,2.723,2.723,0,0,1-1.215,1,4.622,4.622,0,0,1-1.875.347H636.94l.833-.822v3.078Zm1.875-2.87-.833-.879H639.3a1.918,1.918,0,0,0,1.3-.376,1.474,1.474,0,0,0,0-2.077,1.94,1.94,0,0,0-1.3-.37H636.94l.833-.891Zm3.275,2.87-2.025-2.939h2l2.048,2.939Z" transform="translate(-635.899 -589.313)" fill="#2c7efe"/>
        <path id="Path_869" data-name="Path 869" d="M731.99,596.048H736.4v1.5h-6.272v-8.1h6.121v1.5H731.99Zm-.139-3.333h3.9v1.458h-3.9Z" transform="translate(-721.622 -589.313)" fill="#2c7efe"/>
        <path id="Path_870" data-name="Path 870" d="M816.147,597.552v-8.1h3.506a4.555,4.555,0,0,1,1.875.353,2.746,2.746,0,0,1,1.215,1.012,3.085,3.085,0,0,1,0,3.136,2.745,2.745,0,0,1-1.215,1.013,4.554,4.554,0,0,1-1.875.353h-2.465l.833-.845v3.078h-1.875Zm1.875-2.87-.833-.891h2.361a1.938,1.938,0,0,0,1.3-.37,1.29,1.29,0,0,0,.428-1.03,1.3,1.3,0,0,0-.428-1.041,1.94,1.94,0,0,0-1.3-.37h-2.361l.833-.891Z" transform="translate(-799.877 -589.313)" fill="#2c7efe"/>
        <path id="Path_871" data-name="Path 871" d="M908.792,596.291a4.927,4.927,0,0,1-1.776-.312,4.2,4.2,0,0,1-1.412-.88,4.011,4.011,0,0,1-.926-1.331,4.375,4.375,0,0,1,0-3.333,3.973,3.973,0,0,1,.932-1.331,4.28,4.28,0,0,1,1.412-.88,5.122,5.122,0,0,1,3.524,0,4.234,4.234,0,0,1,1.4.88,4.229,4.229,0,0,1,.932,4.669,4.01,4.01,0,0,1-.932,1.331,4.278,4.278,0,0,1-1.4.874A4.8,4.8,0,0,1,908.792,596.291Zm-.011-1.6a2.644,2.644,0,0,0,1-.185,2.4,2.4,0,0,0,.8-.532,2.436,2.436,0,0,0,.538-.822,3,3,0,0,0,0-2.106,2.479,2.479,0,0,0-.532-.822,2.327,2.327,0,0,0-.8-.532,2.689,2.689,0,0,0-1.007-.185,2.642,2.642,0,0,0-1,.185,2.4,2.4,0,0,0-.8.532,2.43,2.43,0,0,0-.538.822,2.984,2.984,0,0,0,0,2.1,2.461,2.461,0,0,0,.532.828,2.324,2.324,0,0,0,.8.532A2.689,2.689,0,0,0,908.78,594.694Z" transform="translate(-880.117 -587.913)" fill="#2c7efe"/>
        <path id="Path_872" data-name="Path 872" d="M1018.19,597.552v-8.1h3.506a4.555,4.555,0,0,1,1.875.353,2.747,2.747,0,0,1,1.215,1.012,2.829,2.829,0,0,1,.428,1.574,2.779,2.779,0,0,1-.428,1.557,2.724,2.724,0,0,1-1.215,1,4.623,4.623,0,0,1-1.875.347h-2.465l.833-.822v3.078Zm1.875-2.87-.833-.879h2.361a1.918,1.918,0,0,0,1.3-.376,1.474,1.474,0,0,0,0-2.077,1.94,1.94,0,0,0-1.3-.37h-2.361l.833-.891Zm3.275,2.87-2.025-2.939h2l2.048,2.939Z" transform="translate(-983.683 -589.313)" fill="#2c7efe"/>
        <path id="Path_873" data-name="Path 873" d="M1103.6,597.552v-6.573h-2.592v-1.527h7.059v1.527h-2.592v6.573Z" transform="translate(-1059.03 -589.313)" fill="#2c7efe"/>
      </g>
    </g>
    <g id="Group_3300" data-name="Group 3300" transform="translate(252.763 130.929)">
      <path id="XMLID_33_" d="M1366.207,1566.337c-2.136.563-4.372,1.673-6.393,1.69-1.756-4.141,3.428-9.06,2.733-16.5l4.339,6.31Z" transform="translate(-1341.034 -1466.161)" fill="#153663" fill-rule="evenodd"/>
      <path id="XMLID_8_" d="M1180.01,1446.552c.778,3.147.1,6.41-1.689,8.331-1.093-.3-2.186-.613-3.263-.911a16.452,16.452,0,0,1-4.389.464c-1.507-.5-3.015-.977-4.505-1.474a4.142,4.142,0,0,1-2.882-1.292.857.857,0,0,1,.513-1.408c-.547-.364-1.458-.613-1.458-1.342a2.058,2.058,0,0,1,.4-1.126c-.447-.315-1.358-.464-1.358-1.308a1.166,1.166,0,0,1,.4-1.06,34.056,34.056,0,0,0-5.3-.894c-.662.05-1.971-1.408,0-2.037,2.7-.331,6.31.348,9.341.116,1.805,0,3.379-.447,4.952-.447-1.226-2.136-3.71-4.836-.779-6.525,1.242-.447,1.457,4.389,4.5,5.4,1.623,1.342,2.4,3.23,3.594,4.836Z" transform="translate(-1155.432 -1360.702)" fill="#f8a780" fill-rule="evenodd"/>
      <path id="XMLID_70_" d="M1390.559,948.7c2.86,1.415,8.626,5.573,11.706,7.835,6.5,4.773,9.911,8.3,12.972,15.832,3.907,9.608-6.724,37.994-8.828,41.638-4.489,3.23-10.815,1.839-16.33,1.888.3,3.478.563,7.221,1.706,10.335h-19.643l-.232-11.66c-2,.1-4.008.182-6.029.281,2.948-3.23,6.029-10.517,5.184-16.132l1.126.281.041-55.458ZM1397.151,992c.712.977-1.209,7.47-1.822,11.213-1.673.348-2.319-.563-4.207-.215-.762-.547-.63-.414-.977-1.044,1.888-3.23,3.644-6.592,7.006-9.954Z" transform="translate(-1346.886 -913.052)" fill="#ff8500" fill-rule="evenodd"/>
      <path id="XMLID_79_" d="M1445.726,1015.991a96.954,96.954,0,0,0-6.668,11.452l-1.988,13.681.066-13.316,3.988-14.314Z" transform="translate(-1411.649 -976.689)" fill="#ff8500" fill-rule="evenodd"/>
      <path id="XMLID_84_" d="M1420.934,657.966l-.021.414a5.69,5.69,0,0,0-2.331,1.858c-.468.74-.069,1.389.494,1.417a5.707,5.707,0,0,0,2.712-.844,2.012,2.012,0,0,0,.778-1.653,1.959,1.959,0,0,0-1.632-1.192Z" transform="translate(-1394.643 -653.252)" fill="#ffcdad" fill-rule="evenodd"/>
      <path id="XMLID_85_" d="M1403.653,687.307c1.872-.894,3.677-1.573,5.548-2.468.828,0,.828.083,1.325.629a1.3,1.3,0,0,1-.563,1.689l-5.88,1.971c-.912.2-1.69-1.06-.431-1.822Z" transform="translate(-1380.65 -677.7)" fill="#ffcdad" fill-rule="evenodd"/>
      <path id="XMLID_86_" d="M1394.624,716.425a48.489,48.489,0,0,1,6.31-2.584c1.06-.282,1.193.414,1.275,1.043.066.629-.083,1.341-.712,1.54l-5.6,1.822a1.139,1.139,0,0,1-1.275-1.822Z" transform="translate(-1372.747 -704.026)" fill="#ffcdad" fill-rule="evenodd"/>
      <path id="XMLID_87_" d="M1401.638,746.374c2.054-.662,4.108-1.308,6.161-1.971a.97.97,0,0,1,1.126.712,1.831,1.831,0,0,1-1.259,2.236c-1.689.331-3.362.662-5.052.977-1.259.431-1.822-1.54-.977-1.954Z" transform="translate(-1379.049 -731.864)" fill="#ffcdad" fill-rule="evenodd"/>
      <path id="Path_874" data-name="Path 874" d="M1438.03,783.962a3.72,3.72,0,0,1-1.789.239q.038-1.729.1-3.441c1.445-.5,3.347-1.234,4.025-.682C1440.923,780.587,1438.532,782.617,1438.03,783.962Z" transform="translate(-1410.894 -764.163)" fill="#ffcdad" fill-rule="evenodd"/>
      <g id="Group_3299" data-name="Group 3299" transform="translate(30.361)">
        <path id="XMLID_9193_" d="M1600.587,955.458l-14.652,1.182c-.5,3.916-1.007,7.887-1.435,11.813-.212,6.95,12.665,2.406,13.771,1.847Z" transform="translate(-1576.129 -923.892)" fill="#e5997a" fill-rule="evenodd"/>
        <path id="XMLID_9191_" d="M1548.577,706.665l-26.848-5.089c.177,9.777-3.088,26.42.593,29.285,2.092,2.744,13.392,3.9,17.446,1.941,3.733-1.282,6.714-16.36,8.809-26.137Z" transform="translate(-1517.966 -692.926)" fill="#eeac8c" fill-rule="evenodd"/>
        <path id="XMLID_9189_" d="M1516.865,620.226c-2.172-2.2-18.885-.434-21.367-2.4-6.986-4.512-2.525-3.195.66-9.821,1.51-4.267,4.525-1.388,17.646-.19,2.891.312,4.561,4.047,5.409,5.445,4.583,2,7.822,2.584,7.484,6.413-.4,4.6-5.369,10.573-8.03,15.89-3.727-5.587,1.924-12.018-1.8-15.334Z" transform="translate(-1491.793 -605.746)" fill="#1e194e" fill-rule="evenodd"/>
        <path id="XMLID_9187_" d="M1751.18,809.944l.519-4.689c.509-1.588,3.79-2.05,4.644.07.634,2.863-3.825,5.7-5.163,4.619Z" transform="translate(-1727.767 -786.01)" fill="#eeac8c" fill-rule="evenodd"/>
        <path id="XMLID_9186_" d="M1510.34,911.663c-8.18.244-11.25-6.8-8.509-15.317,1.653-.7,7.9,10.8,20.289,4.85q.078,1.175.155,2.35c-.184,6.566-6.338,8.491-11.935,8.117Z" transform="translate(-1500.034 -870.087)" fill="#1e194e" fill-rule="evenodd"/>
        <path id="XMLID_9207_" d="M1676.31,745.373l1.453,3.7-4.815,18.909c-1.861.226-3.661.407-5.522.633,4.561-5.428,6.512-13.841,8.884-23.245Z" transform="translate(-1651.573 -732.77)" fill="#1f1a4d" fill-rule="evenodd"/>
        <path id="XMLID_9208_" d="M1544.93,985.022a14.125,14.125,0,0,0,6.839,1.976c-3.49,1.833-5.248.5-6.839-1.976Z" transform="translate(-1540.133 -950.787)" fill="#fff" fill-rule="evenodd"/>
      </g>
    </g>
  </g>
</svg>
