<svg id="Group_578" data-name="Group 578" xmlns="http://www.w3.org/2000/svg" width="185.654" height="126.234" viewBox="0 0 185.654 126.234">
  <g id="Rectangle_1738" data-name="Rectangle 1738" transform="translate(175.966 60.64) rotate(159)" fill="#ff8500" stroke="#33608d" stroke-linecap="round" stroke-linejoin="round" stroke-width="2">
    <rect width="14.901" height="22.516" rx="5" stroke="none"/>
    <rect x="1" y="1" width="12.901" height="20.516" rx="4" fill="none"/>
  </g>
  <g id="Group_385" data-name="Group 385" transform="translate(58.517 67.712)">
    <path id="Path_742" data-name="Path 742" d="M1439.271,490.3c.7-1.033,2.632-1.9,6.485-3.637a56.6,56.6,0,0,1,6.966-2.6c-6.7-7.336-10.464-24.406-20.106-22-26.021,6.476-23.573,1.529-35.792-3.021a35.492,35.492,0,0,0-8.439-2.133c-4.685-.179-7.752,3.5-10.859,7.012-4.223,4.771-8.566,9.441-12.906,14.108a14.487,14.487,0,0,1,7.53,3.671c3.714,3.5,6.023,9.648,4.029,13.929-2.722,5.835-3.7,4.075-14.314,10.736,0,0-3.865,5.749-.281,6.593,11.171,2.638,73.563-2.071,87.964.308C1456.908,514.481,1435.815,495.376,1439.271,490.3Z" transform="translate(-1359.262 -456.086)" fill="#ff8500"/>
    <g id="Group_384" data-name="Group 384">
      <path id="Path_743" data-name="Path 743" d="M1436.8,488.068c1.174-1.581,3.28-2.34,5.009-3.129a71.35,71.35,0,0,1,8.926-3.48c-.12.45-.237.9-.358,1.353-4.676-5.212-6.787-12.144-11-17.677-1.742-2.287-4.13-4.537-7.216-4.3-2.441.188-4.929,1.119-7.327,1.631-2.068.441-4.149.842-6.245,1.15-4.79.7-9.62.94-14.135-1.048-1.809-.8-3.52-1.8-5.289-2.685a45.692,45.692,0,0,0-9-3.347c-2.555-.657-5.043-1.014-7.481.274-2.352,1.242-4.14,3.35-5.875,5.314-4.383,4.956-8.88,9.808-13.386,14.653-.12-.45-.237-.9-.358-1.353,7.475,1.3,14.444,9.139,12.644,17.061a11.6,11.6,0,0,1-3.6,6.051c-2.028,1.671-4.645,2.666-6.926,3.93-1.437.8-3.566,1.624-4.6,2.82a7.566,7.566,0,0,0-1.412,3.267c-.237,1.356.453,1.748,1.646,1.957.721.129,1.452.207,2.182.274,4.722.435,9.5.391,14.24.361,13.633-.092,27.263-.675,40.89-1,6.149-.145,12.3-.268,18.457-.185,2.355.031,4.71.089,7.059.243,1.612.1,3.276.493,4.879.481.167,0,.034.052.052.015-.08.157-.043-.188-.114-.379a10.815,10.815,0,0,0-1.032-1.982c-1.3-2.065-2.814-3.995-4.269-5.949-1.615-2.17-3.236-4.349-4.63-6.673a12.855,12.855,0,0,1-2.2-5.551,3.434,3.434,0,0,1,.481-2.1c.555-.878,1.957-.068,1.4.817-.888,1.4.373,3.582,1.039,4.818a56.217,56.217,0,0,0,4.371,6.6c1.544,2.1,3.159,4.158,4.62,6.322.758,1.125,2.019,2.728,1.92,4.183-.108,1.634-1.754,1.529-2.959,1.356-1.834-.262-3.689-.37-5.539-.45-5.644-.25-11.306-.176-16.953-.083-14.019.231-28.031.829-42.049,1.066-5.487.092-10.989.17-16.475-.083a50.41,50.41,0,0,1-5.323-.466c-2.213-.339-3.736-1.412-3.28-3.893a11.171,11.171,0,0,1,1.421-3.489c.734-1.261,2.093-1.809,3.326-2.537,2.688-1.581,5.708-2.777,8.261-4.568a9.676,9.676,0,0,0,3.714-6.618c.413-4.741-2.635-9.786-6.605-12.206a14.438,14.438,0,0,0-5.061-1.856.818.818,0,0,1-.358-1.353c4.2-4.522,8.409-9.044,12.508-13.661,2.891-3.258,5.992-7.191,10.653-7.653,3.766-.373,8,1.329,11.423,2.746,2.148.891,4.189,1.976,6.248,3.051a20.9,20.9,0,0,0,5.268,2.056,25.3,25.3,0,0,0,8.039.114,141.17,141.17,0,0,0,14.216-2.823,8.5,8.5,0,0,1,7.724,2.155c6.066,5.36,7.826,14.1,13.171,20.06a.819.819,0,0,1-.358,1.353,65.377,65.377,0,0,0-8.067,3.1c-1.489.675-3.874,1.381-4.9,2.762C1437.581,489.71,1436.175,488.9,1436.8,488.068Z" transform="translate(-1357.486 -454.261)" fill="#33608d"/>
    </g>
  </g>
  <path id="Path_744" data-name="Path 744" d="M1416.435,527.51s7.391,14.709-10.4,21.031" transform="translate(-1280.15 -437.22)" fill="#ff8500" stroke="#33608d" stroke-width="2"/>
  <path id="Path_745" data-name="Path 745" d="M1571.352,523.5s-7.391,14.709,10.4,21.031" transform="translate(-1494.436 -434.446)" fill="#ff8500" stroke="#33608d" stroke-width="2"/>
  <g id="Group_387" data-name="Group 387" transform="translate(0 123.81)">
    <g id="Group_386" data-name="Group 386" transform="translate(0 0)">
      <path id="Path_746" data-name="Path 746" d="M1435.414,638.418H1251.843a1.08,1.08,0,0,1,0-2.158h183.571a1.08,1.08,0,0,1,0,2.158Z" transform="translate(-1250.801 -636.26)" fill="#33608d"/>
    </g>
  </g>
  <g id="Group_389" data-name="Group 389" transform="translate(135.305 56.795)">
    <path id="Path_748" data-name="Path 748" d="M1283.243,442.909c-2.561,1.708-4.358,4.318-6.091,6.864a195.642,195.642,0,0,0-11.217,17.825,54.129,54.129,0,0,0-4.836,11.8,37.231,37.231,0,0,0-.746,14.9c.318,2.068.959,4.328,2.746,5.419a6.226,6.226,0,0,0,2.574.764c5.721.626,11.374-2.565,14.952-7.074s5.37-10.172,6.547-15.806a90.094,90.094,0,0,0,1.809-22.5,1.639,1.639,0,0,1,.388-1.421,1.523,1.523,0,0,1,.906-.231c2.216-.046,4.4.576,6.612.657a10.607,10.607,0,0,0,6.76-1.939,7.369,7.369,0,0,0,3.021-6.183c-.277-4.14-4.509-6.926-8.566-7.8-2.287-.493-4.938-.5-6.658,1.085a2.8,2.8,0,0,0-.934,1.615c-.179,1.316.962,2.45,2.148,3.042a8.2,8.2,0,0,0,7.234-.022" transform="translate(-1259.145 -432.02)" fill="#fff"/>
    <ellipse id="Ellipse_489" data-name="Ellipse 489" cx="8.293" cy="5.183" rx="8.293" ry="5.183" transform="translate(27.023 0)" fill="#fff"/>
    <g id="Group_388" data-name="Group 388" transform="translate(0 5.068)">
      <path id="Path_749" data-name="Path 749" d="M1282.025,441.771a22.107,22.107,0,0,0-5.527,6.162c-1.791,2.62-3.572,5.243-5.3,7.9a98.551,98.551,0,0,0-9.136,16.518,40.576,40.576,0,0,0-2.555,9.016,36.57,36.57,0,0,0-.194,9.534c.237,2.176.558,5.206,2.688,6.411a7.735,7.735,0,0,0,3.995.66,14.081,14.081,0,0,0,3.8-.69c5.228-1.686,9.1-5.918,11.488-10.727a40.421,40.421,0,0,0,2.891-8.134,81.927,81.927,0,0,0,1.735-9.13,88.647,88.647,0,0,0,.767-9.857q.056-2.437-.021-4.87a9.572,9.572,0,0,1,.012-2.262,1.752,1.752,0,0,1,1.541-1.393,17.7,17.7,0,0,1,4.778.388,15.013,15.013,0,0,0,4.4.126,8.153,8.153,0,0,0,6.306-4.247,5.836,5.836,0,0,0-.764-6.316,11.455,11.455,0,0,0-5.9-3.566c-2.139-.579-5.055-.9-6.772.832a1.716,1.716,0,0,0-.589,1.4,2.322,2.322,0,0,0,.866,1.335,6.172,6.172,0,0,0,3.569,1.295,7.445,7.445,0,0,0,3.8-.731c.885-.438,1.667.891.777,1.332a8.826,8.826,0,0,1-8.612-.327,3.7,3.7,0,0,1-1.883-3.677,4.5,4.5,0,0,1,2.922-2.953c2.453-.977,5.462-.422,7.844.515a11.5,11.5,0,0,1,5.918,4.676,7.425,7.425,0,0,1-.293,7.749,10.015,10.015,0,0,1-7.5,4.269,19.1,19.1,0,0,1-4.867-.274c-.832-.123-1.667-.244-2.509-.3a10.279,10.279,0,0,0-1.153-.018c-.262.015-.351.034-.4.3a4.186,4.186,0,0,0,.006.878c.018.45.034.9.046,1.347.025.875.034,1.748.034,2.623q0,2.585-.16,5.166a92.227,92.227,0,0,1-1.205,10.323,66.045,66.045,0,0,1-2.2,9.216c-1.865,5.681-4.969,11.072-10.079,14.4a17.281,17.281,0,0,1-7.934,2.808,11.324,11.324,0,0,1-4.386-.379,5.453,5.453,0,0,1-3.15-2.694,11.714,11.714,0,0,1-1.116-3.7,37.87,37.87,0,0,1,.712-15.165c1.624-6.411,4.873-12.351,8.294-17.961,1.754-2.873,3.606-5.684,5.487-8.476a80.258,80.258,0,0,1,5.487-7.709,16.463,16.463,0,0,1,3.264-2.944c.835-.555,1.609.78.789,1.332Z" transform="translate(-1257.539 -435.284)" fill="#33608d"/>
    </g>
  </g>
  <g id="Group_391" data-name="Group 391" transform="translate(165.127 57.183)">
    <g id="Group_390" data-name="Group 390">
      <path id="Path_750" data-name="Path 750" d="M1275.228,431.473a12.537,12.537,0,0,0-2.056-4.861,10.673,10.673,0,0,0-3.409-3.767c-2.487-1.535-6.125-1.794-8.372.345a3.859,3.859,0,0,0-1.113,1.778c-.142.549-.154,1.313.333,1.646a.793.793,0,0,1,.277,1.054.781.781,0,0,1-1.054.277c-1.618-1.107-1.353-3.344-.394-4.8a6.938,6.938,0,0,1,4.223-2.817,9.072,9.072,0,0,1,5.675.57,10.733,10.733,0,0,1,4.608,4.056,26.605,26.605,0,0,1,1.708,3,10.261,10.261,0,0,1,1.116,3.529.775.775,0,0,1-.77.771.8.8,0,0,1-.771-.777Z" transform="translate(-1258.671 -420.103)" fill="#33608d"/>
    </g>
  </g>
  <g id="Group_393" data-name="Group 393" transform="translate(162.186 55.317)">
    <g id="Group_392" data-name="Group 392">
      <path id="Path_751" data-name="Path 751" d="M1298.036,416.793a6.652,6.652,0,0,0-5.625-.989,7.069,7.069,0,0,0-2.811,1.2,3.172,3.172,0,0,0-.971,2.842,1.8,1.8,0,0,0,.715,1.267,1.142,1.142,0,0,0,1.162.133c.875-.469,1.655.863.777,1.332a2.827,2.827,0,0,1-3.612-1,4.58,4.58,0,0,1-.145-4.328,5.359,5.359,0,0,1,3.4-2.614,9.8,9.8,0,0,1,3.964-.558,7.565,7.565,0,0,1,4.238,1.631.779.779,0,0,1,0,1.091.79.79,0,0,1-1.088,0Z" transform="translate(-1287.055 -414.05)" fill="#33608d"/>
    </g>
  </g>
  <g id="Group_395" data-name="Group 395" transform="translate(165.111 68.742)">
    <g id="Group_394" data-name="Group 394">
      <path id="Path_752" data-name="Path 752" d="M1303.955,459.214c-.089-.025-.182-.04-.271-.058-.185-.037.173.012-.015,0l-.111-.009a4.571,4.571,0,0,0-.583.012c-.1.006.157-.031.012,0-.046.009-.093.015-.136.025a2.7,2.7,0,0,0-.271.068c-.1.028-.194.062-.29.1s-.006.015.028-.015a.846.846,0,0,1-.151.071,3.561,3.561,0,0,0-.481.28c-.037.028-.074.056-.114.08-.077.056.111-.1,0,0-.071.062-.139.12-.206.185s-.13.133-.191.2a1.141,1.141,0,0,1-.1.129c.056-.022.08-.108.006,0a3.183,3.183,0,0,0-.287.509.775.775,0,0,1-1.054.277.794.794,0,0,1-.277-1.054,4.343,4.343,0,0,1,4.91-2.278.779.779,0,0,1,.539.949.8.8,0,0,1-.955.536Z" transform="translate(-1299.369 -457.603)" fill="#33608d"/>
    </g>
  </g>
  <g id="Group_397" data-name="Group 397" transform="translate(157.669 57.323)">
    <g id="Group_396" data-name="Group 396">
      <path id="Path_753" data-name="Path 753" d="M1332.306,431.46a3.986,3.986,0,0,1-1.3-2.266,15.262,15.262,0,0,1-.379-3.036,6.5,6.5,0,0,1,2.062-5.385.8.8,0,0,1,1.091,0,.779.779,0,0,1,0,1.091,5.058,5.058,0,0,0-1.612,4.294,13.723,13.723,0,0,0,.284,2.46,2.808,2.808,0,0,0,.94,1.751.778.778,0,0,1,0,1.091.787.787,0,0,1-1.088,0Z" transform="translate(-1330.625 -420.557)" fill="#33608d"/>
    </g>
  </g>
  <g id="Group_401" data-name="Group 401" transform="translate(25.554 114.045)">
    <g id="Group_400" data-name="Group 400" transform="translate(0 0)">
      <path id="Path_755" data-name="Path 755" d="M1767.3,606.1c-3.511-1.436-7.469-2.222-11.2-1.205a10.434,10.434,0,0,0-6.794,5.567,7.88,7.88,0,0,0-.373,1.051c-.059.213-.111.428-.154.644-.019.1-.1.351-.031.447a1.236,1.236,0,0,0,.413.188,5.7,5.7,0,0,0,.774.222,5.026,5.026,0,0,0,1.535.055.775.775,0,0,1,.771.771.787.787,0,0,1-.771.771,6.165,6.165,0,0,1-3.255-.555,1.75,1.75,0,0,1-.968-1.07,3.226,3.226,0,0,1,.12-1.566,10.193,10.193,0,0,1,2.58-4.6,13.484,13.484,0,0,1,10.582-3.9,22.065,22.065,0,0,1,7.185,1.7.8.8,0,0,1,.539.949.787.787,0,0,1-.953.536Z" transform="translate(-1747.191 -602.898)" fill="#33608d"/>
    </g>
  </g>
  <g id="Group_403" data-name="Group 403" transform="translate(36.049 119.496)">
    <g id="Group_402" data-name="Group 402">
      <path id="Path_756" data-name="Path 756" d="M1756.676,621.176l.533-.148v1.486a6.574,6.574,0,0,0-8.045,3.24.778.778,0,0,1-1.054.277.791.791,0,0,1-.277-1.054,8.1,8.1,0,0,1,9.786-3.949.778.778,0,0,1,0,1.486l-.533.148a.771.771,0,0,1-.41-1.486Z" transform="translate(-1747.741 -620.582)" fill="#33608d"/>
    </g>
  </g>
  <g id="Group_407" data-name="Group 407" transform="translate(97.563 58.471)">
    <path id="Path_758" data-name="Path 758" d="M1534.18,426.78" transform="translate(-1533.436 -426.009)" fill="#11ab86"/>
    <g id="Group_406" data-name="Group 406">
      <path id="Path_759" data-name="Path 759" d="M1532.505,425.821a.771.771,0,0,1,0-1.541.771.771,0,0,1,0,1.541Z" transform="translate(-1531.761 -424.28)" fill="#33608d"/>
    </g>
  </g>
  <g id="Group_409" data-name="Group 409" transform="translate(92.248)">
    <path id="Path_760" data-name="Path 760" d="M1421.654,297.295c2.7-3.2,3.307-7.74,2.682-11.879s-2.33-8.023-3.8-11.941a48.011,48.011,0,0,1-3.394-14.012,22.408,22.408,0,0,1,3.366-13.815,20.021,20.021,0,0,1,9.056-7.163c8.44-3.449,17.523-.567,23.4,6.152,6.806,7.786,7.669,18.54.638,26.653-4.433,5.114-10.363,8.162-10.905,15.627-.216,2.984.471,5.974.287,8.96" transform="translate(-1416.331 -236.269)" fill="#ff8500"/>
    <g id="Group_408" data-name="Group 408">
      <path id="Path_761" data-name="Path 761" d="M1419.387,295.067c3.227-3.859,3.092-9.383,1.886-13.984a77.684,77.684,0,0,0-2.827-8.085,71.328,71.328,0,0,1-2.682-8.174c-1.328-5.292-1.723-10.955-.043-16.219a19.562,19.562,0,0,1,3.708-6.75,21.114,21.114,0,0,1,19.718-6.9,22.709,22.709,0,0,1,12.067,6.83,22.968,22.968,0,0,1,6.146,12.591,19.707,19.707,0,0,1-3.018,13.226c-2.41,3.727-6.017,6.319-8.936,9.6a14.56,14.56,0,0,0-3.039,4.947,18.885,18.885,0,0,0-.484,7.718,31.261,31.261,0,0,1,.142,4.331c-.056.986-1.6.992-1.541,0,.17-2.944-.481-5.866-.3-8.809a14.039,14.039,0,0,1,1.883-6.257c2.08-3.551,5.474-6.041,8.273-8.982a19.338,19.338,0,0,0,5.6-11.919,19.965,19.965,0,0,0-3.585-12.573,22.119,22.119,0,0,0-10.539-8.356,19.182,19.182,0,0,0-23.722,9.426c-2.244,4.731-2.346,10.227-1.381,15.291a54.638,54.638,0,0,0,2.309,8.147c.949,2.654,2.056,5.249,2.953,7.925,1.621,4.839,2.457,10.206.373,15.048a12.334,12.334,0,0,1-1.877,3.027.779.779,0,0,1-1.091,0,.79.79,0,0,1,0-1.091Z" transform="translate(-1414.609 -234.584)" fill="#33608d"/>
    </g>
  </g>
  <g id="Group_411" data-name="Group 411" transform="translate(94.739 15.246)">
    <path id="Path_762" data-name="Path 762" d="M1464.075,304.98c2.407-5.009.992-11.962-3.1-15.254a13.668,13.668,0,0,0-4.972-2.407,19.807,19.807,0,0,0-16.74,2.762,21.561,21.561,0,0,0-8.739,16.232c-.092,1.853.142,3.924,1.378,5.129a3.881,3.881,0,0,0,3.791.783,12.554,12.554,0,0,0,3.6-1.96c3.779-2.6,7.675-5.107,11.935-6.436s8.964-1.39,12.949.78" transform="translate(-1429.727 -285.788)" fill="#fff"/>
    <g id="Group_410" data-name="Group 410">
      <path id="Path_763" data-name="Path 763" d="M1461.682,302.846a12.428,12.428,0,0,0,.764-7.888,11.09,11.09,0,0,0-3.911-6.562,16.31,16.31,0,0,0-9.216-2.8,18.9,18.9,0,0,0-9.312,2.124,20.342,20.342,0,0,0-10.15,14.321,14.7,14.7,0,0,0-.231,4.571c.182,1.325.755,2.743,2.152,3.147,1.538.447,3.045-.351,4.3-1.165,1.51-.977,2.965-2.034,4.485-3,5.813-3.68,12.97-6.747,19.894-4.429a15.458,15.458,0,0,1,2.376,1.03c.872.472.1,1.8-.777,1.332a15.167,15.167,0,0,0-10.172-1.261,30.75,30.75,0,0,0-10.067,4.361c-1.609,1-3.15,2.1-4.728,3.144a7.545,7.545,0,0,1-4.956,1.618,4.414,4.414,0,0,1-3.646-2.977,10.9,10.9,0,0,1-.379-4.944,22.2,22.2,0,0,1,9.626-16.2,20.25,20.25,0,0,1,9.771-3.181,20.006,20.006,0,0,1,10.1,1.936,11.926,11.926,0,0,1,5.819,6.781,14.636,14.636,0,0,1,.364,8.754,12.658,12.658,0,0,1-.783,2.065.778.778,0,0,1-1.054.277.789.789,0,0,1-.274-1.054Z" transform="translate(-1428 -284.046)" fill="#33608d"/>
    </g>
  </g>
  <g id="Group_413" data-name="Group 413" transform="translate(88.13 18.831)">
    <path id="Path_764" data-name="Path 764" d="M1443.561,340.235c3.915-.666,7.071-3.862,8.529-7.555s1.446-7.811.9-11.744a28.128,28.128,0,0,0-1.612-6.556,29.946,29.946,0,0,0-4.023-6.84,25.46,25.46,0,0,0-7.511-7.139,19.451,19.451,0,0,0-15.162-1.276,30.088,30.088,0,0,0-12.9,8.535c-4.164,4.476-7.379,10.061-8.008,16.139s1.671,12.638,6.655,16.179c4.9,3.48,11.383,3.6,17.372,3.1a27.175,27.175,0,0,0,6.843-1.245c1.911-.678,3.686-1.729,5.65-2.225,2.432-.62,5.073-.37,7.388-1.338" transform="translate(-1402.928 -297.402)" fill="#ff8500"/>
    <g id="Group_412" data-name="Group 412">
      <path id="Path_765" data-name="Path 765" d="M1441.588,337.768c4.513-.8,7.576-4.8,8.64-9.05a23.493,23.493,0,0,0,.407-7.986,28.914,28.914,0,0,0-1.816-8,29.993,29.993,0,0,0-4.05-6.735,27.855,27.855,0,0,0-5.1-5.345,17.793,17.793,0,0,0-14.031-3.125,26.4,26.4,0,0,0-12.859,6.75,32.532,32.532,0,0,0-8.507,11.87,20.29,20.29,0,0,0-.771,13.414,15.068,15.068,0,0,0,8.4,9.62c4.46,1.9,9.537,1.791,14.274,1.384a34.316,34.316,0,0,0,4.118-.552,19.7,19.7,0,0,0,3.921-1.279,30.406,30.406,0,0,1,3.773-1.513,23.039,23.039,0,0,1,4-.626,13.462,13.462,0,0,0,3.72-.8.776.776,0,0,1,.949.539.793.793,0,0,1-.539.949c-2.589,1.057-5.477.7-8.116,1.55-1.338.435-2.6,1.076-3.89,1.615a19.557,19.557,0,0,1-4.118,1.193,50.41,50.41,0,0,1-8.258.7,29.949,29.949,0,0,1-7.629-.8,17.318,17.318,0,0,1-6.71-3.289,16.155,16.155,0,0,1-4.232-5.394,20.584,20.584,0,0,1-1.359-14.043,33.831,33.831,0,0,1,20.423-22,20.564,20.564,0,0,1,15.442.777,21.064,21.064,0,0,1,6.134,4.833,40.238,40.238,0,0,1,4.836,6.535,24.993,24.993,0,0,1,3.005,8.063,33.279,33.279,0,0,1,.632,8.436,17.732,17.732,0,0,1-2.185,7.74,13.144,13.144,0,0,1-4.91,4.926A10.382,10.382,0,0,1,1442,339.26a.8.8,0,0,1-.949-.539.782.782,0,0,1,.536-.952Z" transform="translate(-1401.161 -295.678)" fill="#33608d"/>
    </g>
  </g>
  <g id="Group_415" data-name="Group 415" transform="translate(95.325 54.207)">
    <path id="Path_766" data-name="Path 766" d="M1468.4,412.85a29.5,29.5,0,0,1,1.273,8.458,39.05,39.05,0,0,1-.345,8.55,4.612,4.612,0,0,1-3.542,3.686c3.048,1.526,5.382,4.2,8.55,5.483,5.11,2.065,13.417,1.193,14.758-5.394-1.837.336-3.884.29-4.658-1.772a6.017,6.017,0,0,1-.247-2.651c.271-3.092.7-6.18,1.042-9.265-4.657-1.418-8.6-4.731-13.285-6.051a4.925,4.925,0,0,0-2.941-.12" transform="translate(-1465.036 -412.109)" fill="#fff"/>
    <g id="Group_414" data-name="Group 414">
      <path id="Path_767" data-name="Path 767" d="M1467.4,410.981a35.048,35.048,0,0,1,1.332,9.947c.04,1.609.071,3.224-.049,4.833a10.1,10.1,0,0,1-1,4.328,5.254,5.254,0,0,1-3.434,2.537l.185-1.409a52.246,52.246,0,0,1,5.705,3.9,13.547,13.547,0,0,0,5.009,2.2,11.69,11.69,0,0,0,8.806-1.412,6.612,6.612,0,0,0,2.657-4.143l.949.949c-1.9.339-4.109.29-5.243-1.541a6.082,6.082,0,0,1-.623-3.779c.126-1.421.287-2.839.453-4.254.191-1.618.395-3.236.576-4.858.188.247.376.5.567.743-4.3-1.325-7.894-4.173-12.107-5.675a5.9,5.9,0,0,0-3.708-.5c-.946.308-1.35-1.181-.41-1.486a6.1,6.1,0,0,1,3.662.21,24,24,0,0,1,3.27,1.288c2.1.986,4.081,2.188,6.156,3.218a23.873,23.873,0,0,0,3.551,1.455.785.785,0,0,1,.567.743c-.287,2.558-.626,5.11-.891,7.669a10.469,10.469,0,0,0-.059,3.64,2.173,2.173,0,0,0,1.3,1.584,5.116,5.116,0,0,0,2.537.052.784.784,0,0,1,.95.949,8.039,8.039,0,0,1-2.583,4.46,10.271,10.271,0,0,1-4.556,2.173,14.8,14.8,0,0,1-10.545-1.683c-2.343-1.4-4.315-3.341-6.76-4.58a.778.778,0,0,1,.185-1.409,3.745,3.745,0,0,0,2.484-1.785,8.476,8.476,0,0,0,.829-3.733c.1-1.492.08-2.993.043-4.488-.037-1.541-.068-3.079-.225-4.614a25.089,25.089,0,0,0-1.057-5.129c-.308-.946,1.177-1.35,1.48-.41Z" transform="translate(-1463.285 -410.446)" fill="#33608d"/>
    </g>
  </g>
  <path id="Path_768" data-name="Path 768" d="M1443.594,364.938a36.665,36.665,0,0,0,15.245-6.448,23.593,23.593,0,0,1,2.145,14.213c-1.834,11.919-11.852,20.266-22.372,18.648s-17.56-12.594-15.726-24.514a24.725,24.725,0,0,1,.909-3.828C1428.787,365.515,1435.938,366.372,1443.594,364.938Z" transform="translate(-1328.575 -320.298)" fill="#fff" stroke="#33608d" stroke-width="2"/>
  <ellipse id="Ellipse_483" data-name="Ellipse 483" cx="1.698" cy="1.698" rx="1.698" ry="1.698" transform="translate(118.497 49.375)" fill="#33608d"/>
  <ellipse id="Ellipse_484" data-name="Ellipse 484" cx="1.698" cy="1.698" rx="1.698" ry="1.698" transform="translate(104.152 48.573)" fill="#33608d"/>
  <g id="Group_416" data-name="Group 416" transform="translate(92.293 20.694)">
    <path id="Path_769" data-name="Path 769" d="M1440.258,340.636a5.034,5.034,0,0,0,4.876-.345,8.6,8.6,0,0,0,3.508-10.5c-.549-1.27-1.408-2.395-1.862-3.7a15.6,15.6,0,0,1-.382-5.468c.1-4.5-.768-9.241-3.628-12.721-2.987-3.637-7.746-5.394-12.419-5.958a26.822,26.822,0,0,0-14.157,1.942,20.218,20.218,0,0,0-10.169,9.845c-1.461,3.233-1.92,6.812-2.361,10.332-.607,4.842-1.218,9.728-.786,14.592a12.141,12.141,0,0,0,1.273,4.9c1.646,2.931,5.175,4.4,8.535,4.466s6.621-1.051,9.78-2.2q6.112-2.228,12.126-4.707a14.479,14.479,0,0,1,4.1-1.242,4.748,4.748,0,0,1,3.946,1.285" transform="translate(-1402.733 -301.723)" fill="none"/>
  </g>
  <g id="Group_418" data-name="Group 418" transform="translate(102.211 53.863)">
    <g id="Group_417" data-name="Group 417">
      <path id="Path_770" data-name="Path 770" d="M1474,412.856c-5.289,1.794-11.149,2.333-16.392.092a15.712,15.712,0,0,1-3.785-2.309.779.779,0,0,1,0-1.091.791.791,0,0,1,1.091,0c3.915,3.209,9.309,3.868,14.16,3.005a31.186,31.186,0,0,0,4.516-1.184c.943-.321,1.347,1.165.41,1.486Z" transform="translate(-1453.604 -409.33)" fill="#33608d"/>
    </g>
  </g>
  <g id="Group_420" data-name="Group 420" transform="translate(104.632 56.376)">
    <g id="Group_419" data-name="Group 419">
      <path id="Path_771" data-name="Path 771" d="M1478.894,418.864a7.078,7.078,0,0,1-2.413,3.431,12.666,12.666,0,0,1-3.825,2.537,6.934,6.934,0,0,1-7.672-2.188,7.092,7.092,0,0,1-1.538-4.414.771.771,0,0,1,1.541,0,5.437,5.437,0,0,0,3.468,5.117,5.607,5.607,0,0,0,3.44.114,9.3,9.3,0,0,0,3.169-1.979,6.22,6.22,0,0,0,2.343-3.024.772.772,0,0,1,1.489.407Z" transform="translate(-1463.445 -417.485)" fill="#33608d"/>
    </g>
  </g>
  <g id="Group_422" data-name="Group 422" transform="translate(106.604 32.468)">
    <g id="Group_421" data-name="Group 421">
      <path id="Path_772" data-name="Path 772" d="M1503.176,341.461a.771.771,0,0,1,0-1.541.771.771,0,0,1,0,1.541Z" transform="translate(-1502.431 -339.92)" fill="#33608d"/>
    </g>
  </g>
  <g id="Rectangle_1739" data-name="Rectangle 1739" transform="translate(41.555 82.712)" fill="#e8f1ee" stroke="#33608d" stroke-width="2">
    <rect width="37.32" height="43.022" rx="8" stroke="none"/>
    <rect x="1" y="1" width="35.32" height="41.022" rx="7" fill="none"/>
  </g>
  <g id="Group_567" data-name="Group 567" transform="translate(50.808 72.982)">
    <g id="Group_398" data-name="Group 398" transform="translate(0 0)">
      <path id="Path_754" data-name="Path 754" d="M1645.97,461.953a7.549,7.549,0,0,1-4.522-4.135c-.845-1.733-1.11-3.6-2.155-5.289a6.022,6.022,0,0,0-2.195-2.157,4.28,4.28,0,0,0-3.428-.429,3.324,3.324,0,0,0-1.871,2.258,10.619,10.619,0,0,0-.345,3.45c.031,2.322.083,4.9-1.979,6.835a.988.988,0,0,1-1.054.2c-.324-.138-.53-.52-.277-.761,1.84-1.73,1.8-3.988,1.772-6.065a13.146,13.146,0,0,1,.308-3.652,4.7,4.7,0,0,1,1.917-2.829,5.431,5.431,0,0,1,4.211-.545,7.1,7.1,0,0,1,3.3,1.895c1.584,1.595,2.05,3.592,2.719,5.451s1.745,3.975,4.374,4.813a.485.485,0,0,1,.278.761.974.974,0,0,1-1.054.2Z" transform="translate(-1628.032 -448.641)" fill="#33608d"/>
    </g>
  </g>
</svg>
